<?xml version="1.0" encoding="UTF-8"?>
<svg id="Warstwa_1" xmlns="http://www.w3.org/2000/svg" viewBox="0 0 42.04 6.11">
  <defs>
    <style>
      .cls-1 {
        fill: #1d1d1b;
      }
    </style>
  </defs>
  <g>
    <path class="cls-1" d="M13.96.71h2.1c.38,0,.68.09.88.27.2.18.31.44.31.78,0,.19-.04.35-.11.49-.07.14-.17.25-.29.33.18.07.31.17.4.29.09.12.13.3.13.52,0,.36-.11.64-.33.84-.22.2-.54.3-.94.3h-2.15V.71ZM15.76,2.24c.27,0,.41-.12.41-.37,0-.13-.03-.22-.1-.28s-.18-.09-.34-.09h-.69v.74h.72ZM15.81,3.76c.15,0,.26-.03.33-.09.07-.06.11-.17.11-.31,0-.13-.04-.22-.11-.28-.07-.06-.19-.09-.35-.09h-.75v.78h.77Z"/>
    <path class="cls-1" d="M17.97,4.37c-.19-.15-.28-.38-.28-.67s.1-.53.3-.69c.2-.16.5-.24.89-.24h.73v-.05c0-.11-.05-.19-.14-.24s-.25-.08-.48-.08c-.32,0-.65.05-.96.15v-.67c.15-.06.33-.11.54-.14.21-.04.43-.05.65-.05.46,0,.82.09,1.07.28.26.19.38.47.38.86v1.73h-.97l-.05-.23c-.21.19-.53.28-.96.28-.29,0-.53-.08-.72-.23ZM19.61,3.72v-.35h-.54c-.13,0-.22.02-.28.07-.06.05-.09.12-.09.22,0,.19.12.29.36.29.23,0,.41-.08.55-.23Z"/>
    <path class="cls-1" d="M21.4,4.38c-.15-.14-.22-.38-.22-.69V.53h1.12v3.03c0,.08.02.14.05.17.03.03.09.05.17.05.11,0,.21-.02.29-.05v.74c-.11.04-.21.07-.31.09s-.22.03-.37.03c-.34,0-.58-.07-.73-.22Z"/>
    <path class="cls-1" d="M23.07.53h1.12v1.36c.1-.07.23-.12.38-.17.15-.04.31-.07.47-.07.38,0,.67.09.85.27.18.18.27.46.27.83v1.77h-1.12v-1.69c0-.13-.03-.22-.08-.28-.06-.06-.15-.08-.29-.08-.08,0-.17.02-.26.06-.09.04-.16.09-.22.15v1.85h-1.12V.53Z"/>
    <path class="cls-1" d="M26.73,4.37c-.19-.15-.28-.38-.28-.67s.1-.53.3-.69c.2-.16.5-.24.89-.24h.73v-.05c0-.11-.05-.19-.14-.24s-.25-.08-.48-.08c-.32,0-.65.05-.96.15v-.67c.15-.06.33-.11.54-.14.21-.04.43-.05.65-.05.46,0,.82.09,1.07.28.26.19.38.47.38.86v1.73h-.97l-.05-.23c-.21.19-.53.28-.96.28-.29,0-.53-.08-.72-.23ZM28.37,3.72v-.35h-.54c-.13,0-.22.02-.28.07-.06.05-.09.12-.09.22,0,.19.12.29.36.29.23,0,.41-.08.55-.23Z"/>
    <path class="cls-1" d="M29.94,1.72h1.05l.03.21c.11-.08.26-.14.44-.2.18-.05.36-.08.55-.08.35,0,.61.09.77.26.16.17.24.44.24.81v1.81h-1.12v-1.69c0-.13-.03-.22-.09-.27-.06-.06-.15-.08-.29-.08-.08,0-.17.02-.26.06-.09.04-.16.09-.22.15v1.85h-1.12V1.72Z"/>
    <path class="cls-1" d="M33.85,5.54c-.24-.03-.43-.06-.56-.11v-.71c.15.05.34.09.56.12.23.03.44.04.64.04.22,0,.39-.01.5-.03.11-.02.17-.06.17-.12,0-.05-.02-.08-.06-.09-.04-.01-.11-.02-.23-.02h-.74c-.29,0-.52-.05-.67-.14-.15-.09-.23-.23-.23-.42,0-.13.04-.24.11-.33.07-.09.18-.17.32-.22-.16-.08-.28-.19-.36-.31-.08-.13-.11-.29-.11-.48,0-.7.48-1.06,1.44-1.06.09,0,.2,0,.32.02.12.01.22.03.28.04h1.1l-.02.68h-.37c.07.09.11.2.11.33,0,.3-.09.53-.26.69-.17.16-.44.25-.78.25-.09,0-.2,0-.33-.02-.21.02-.32.08-.32.17,0,.04.02.07.05.08.03.01.08.02.15.02h.65c.29,0,.52.07.69.21.16.14.25.33.25.59,0,.28-.13.5-.39.65-.26.15-.66.23-1.19.23-.23,0-.47-.01-.71-.04ZM35.02,2.97c.07-.06.1-.16.1-.3s-.03-.24-.1-.31c-.07-.06-.19-.09-.36-.09s-.28.03-.35.09c-.07.06-.11.16-.11.31,0,.13.03.23.1.29.07.06.19.09.36.09s.29-.03.36-.09Z"/>
    <path class="cls-1" d="M37.01,4.22c-.3-.25-.45-.61-.45-1.08s.13-.82.39-1.08c.26-.26.63-.39,1.13-.39.46,0,.81.12,1.07.35.26.23.39.55.39.96v.49h-1.95c.05.15.15.25.29.32.15.07.36.1.62.1.16,0,.32-.01.48-.04.16-.03.3-.06.4-.11v.67c-.28.13-.66.2-1.16.2s-.91-.13-1.21-.38ZM38.58,2.85v-.1c0-.25-.16-.38-.47-.38-.19,0-.32.04-.4.12-.08.08-.12.2-.12.36h.99Z"/>
    <path class="cls-1" d="M39.96,1.72h1.07l.03.23c.12-.07.27-.13.45-.19.18-.05.35-.09.53-.1v.83c-.17.01-.34.04-.53.08-.19.04-.33.09-.44.14v1.83h-1.12V1.72Z"/>
  </g>
  <g>
    <path class="cls-1" d="M6.91,4.58H.79l-.79-1.53L1.47,0h2.62c.28,0,.5.11.6.31l.63,1.22h-3.06l-.73,1.53h4.58l.79,1.53Z"/>
    <path class="cls-1" d="M12.22,3.06l-1.47,3.06h-2.62c-.28,0-.5-.11-.6-.31l-.63-1.22h3.06l.73-1.53h-4.58l-.79-1.53h6.11l.79,1.53Z"/>
  </g>
</svg>