<svg xmlns="http://www.w3.org/2000/svg" viewBox="0 0 38 25" fill="none" data-src="https://balhanger.com/media/catalog/category/category_lodz_1.svg" class="cs-navigation__link-icon cs-navigation__link-icon--svg " role="img" aria-label="">
<g clip-path="url(#clip0_1261_4042)">
<path d="M3 7V8C3 13.14 7.97 18 13 18H23.76C23.55 18.31 23.4 18.65 23.27 19H0V21H23.05C23.3 23.25 25.19 25 27.5 25C29.81 25 31.7 23.25 31.95 21H38V10L3 7ZM27.5 23C26.12 23 25 21.88 25 20.5C25 19.12 26.12 18 27.5 18C28.88 18 30 19.12 30 20.5C30 21.88 28.88 23 27.5 23ZM36 19H31.72C31.59 18.65 31.44 18.31 31.24 18H36V19ZM27.58 16H13C9.47 16 5.53 12.53 5 9L36 11.88V16H27.58Z" fill="#721229"></path>
</g>
<defs>
<clipPath id="clip0_1261_4042">
<rect width="38" height="25" fill="white"></rect>
</clipPath>
</defs>
</svg>