<svg xmlns="http://www.w3.org/2000/svg" viewBox="0 0 40 25" fill="none" data-src="https://balhanger.com/media/catalog/category/category_budowlane.svg" class="cs-navigation__link-icon cs-navigation__link-icon--svg " role="img" aria-label="">
<path d="M39 12.5C39 10.94 38.21 9.57 37 8.76V0H26.38L22.38 8H15.5C13.19 8 11.3 9.75 11.05 12H8.95C8.7 9.75 6.81 8 4.5 8H4V10C5.66 10 7 11.34 7 13C7 14.66 5.66 16 4 16V18H4.5C6.81 18 8.7 16.25 8.95 14H11.05C11.3 16.25 13.19 18 15.5 18H15.76C15.55 18.31 15.4 18.65 15.27 19H0V21H15.05C15.3 23.25 17.19 25 19.5 25C21.98 25 24 22.98 24 20.5C24 19.57 23.72 18.72 23.24 18H24.76C24.29 18.7 24.01 19.55 24 20.45V20.54C24.02 23 26.03 24.99 28.5 24.99C30.81 24.99 32.7 23.24 32.95 20.99H39V15.99H38.24C38.72 15.27 39 14.42 39 13.49V12.49V12.5ZM27.62 2H35V8.05C34.83 8.03 34.67 8 34.5 8H24.62L27.62 2ZM13 13C13 11.34 14.34 10 16 10H34C35.66 10 37 11.34 37 13C37 14.66 35.66 16 34 16H16C14.34 16 13 14.66 13 13ZM22 20.5C22 21.88 20.88 23 19.5 23C18.12 23 17 21.88 17 20.5C17 19.12 18.12 18 19.5 18C20.88 18 22 19.12 22 20.5ZM28.5 23C27.12 23 26 21.88 26 20.5C26 19.12 27.12 18 28.5 18C29.88 18 31 19.12 31 20.5C31 21.88 29.88 23 28.5 23ZM37 19H32.72C32.59 18.65 32.44 18.31 32.24 18H37V19Z" fill="#EB651C"></path>
</svg>