<svg xmlns="http://www.w3.org/2000/svg" viewBox="0 0 46 25" fill="none" data-src="https://balhanger.com/media/catalog/category/category_towarowe.svg" class="cs-navigation__link-icon cs-navigation__link-icon--svg " role="img" aria-label="">
<path fill-rule="evenodd" clip-rule="evenodd" d="M27.5 16C25.03 16 23.02 17.99 23 20.45V20.54C23.02 23 25.03 24.99 27.5 24.99C29.97 24.99 32 22.97 32 20.49C32 18.01 29.98 15.99 27.5 15.99V16ZM27.5 23C26.12 23 25 21.88 25 20.5C25 19.12 26.12 18 27.5 18C28.88 18 30 19.12 30 20.5C30 21.88 28.88 23 27.5 23Z" fill="#307FAB"></path>
<path fill-rule="evenodd" clip-rule="evenodd" d="M46 3H0V18H14.76C14.55 18.31 14.4 18.65 14.27 19H0V21H14.05C14.3 23.25 16.19 25 18.5 25C20.98 25 23 22.98 23 20.5C23 18.02 20.98 16 18.5 16C18.33 16 18.17 16.03 18 16.05V16H2V5H44V16H36.58H36.59C36.59 16 36.53 16 36.5 16C34.03 16 32.02 17.99 32 20.45V20.54C32.02 23 34.03 24.99 36.5 24.99C38.81 24.99 40.7 23.24 40.95 20.99H46V3ZM21 20.5C21 21.88 19.88 23 18.5 23C17.12 23 16 21.88 16 20.5C16 19.12 17.12 18 18.5 18C19.88 18 21 19.12 21 20.5ZM36.5 23C35.12 23 34 21.88 34 20.5C34 19.12 35.12 18 36.5 18C37.88 18 39 19.12 39 20.5C39 21.88 37.88 23 36.5 23ZM44 19H40.72C40.59 18.65 40.44 18.31 40.24 18H44V19Z" fill="#307FAB"></path>
</svg>