<svg xmlns="http://www.w3.org/2000/svg" viewBox="0 0 38 25" fill="none" data-src="https://balhanger.com/media/catalog/category/category_lawety.svg" class="cs-navigation__link-icon cs-navigation__link-icon--svg " role="img" aria-label="">
<path d="M34.7008 7.93H31.842C31.5721 7.93 31.3222 7.85 31.1022 7.69L26.9333 4.64C26.3634 4.22 25.6936 4 24.9838 4H15.6862C15.0164 4 14.3765 4.2 13.8267 4.58L9.11787 7.8C8.95791 7.91 8.76796 7.98 8.57801 8.01L2.89926 8.68C1.24968 8.89 0.00999743 10.31 0.00999743 11.99V15.97L0.0899769 16H0.00999743V18H15.2763C15.0663 18.31 14.9164 18.65 14.7864 19H0V21H14.5565C14.8064 23.25 16.6959 25 19.0053 25C21.4847 25 23.5042 22.98 23.5042 20.5C23.5042 18.02 21.4847 16 19.0053 16C19.0053 16 18.9953 16 18.9853 16H1.99949V11.98C1.99949 11.35 3.03943 10.82 3.65927 10.74L8.82795 10.07C9.34781 10 9.83769 9.81 10.2676 9.52L14.9764 6.3C15.1863 6.16 15.4263 6 15.6862 6H24.9838C25.2537 6 25.5037 6.16 25.7136 6.32L29.8825 9.37C30.4524 9.79 31.1322 10.01 31.832 10.01H34.6908C35.3807 10.01 36.0005 10.31 36.0005 11V16H28.073H28.083C28.083 16 28.023 16 27.993 16C25.5237 16 23.5142 17.99 23.4942 20.45V20.54C23.5142 23 25.5237 24.99 27.993 24.99C30.3024 24.99 32.1919 23.24 32.4419 20.99H38V11.26C38 9.42 36.5104 7.93 34.6908 7.93H34.7008ZM21.5047 20.5C21.5047 21.88 20.385 23 19.0053 23C17.6257 23 16.506 21.88 16.506 20.5C16.506 19.12 17.6257 18 19.0053 18C20.385 18 21.5047 19.12 21.5047 20.5ZM28.003 23C26.6234 23 25.5037 21.88 25.5037 20.5C25.5037 19.12 26.6234 18 28.003 18C29.3827 18 30.5024 19.12 30.5024 20.5C30.5024 21.88 29.3827 23 28.003 23ZM36.0105 19H32.2219C32.092 18.65 31.942 18.31 31.7421 18H36.0105V19Z" fill="#E5B900"></path>
</svg>