<svg xmlns="http://www.w3.org/2000/svg" viewBox="0 0 38 22" fill="none" data-src="https://balhanger.com/media/catalog/category/category_motocyklowe.svg" class="cs-navigation__link-icon cs-navigation__link-icon--svg " role="img" aria-label="">
<path fill-rule="evenodd" clip-rule="evenodd" d="M24.07 13.0026C24.47 12.4015 24.76 11.7303 24.9 11.029H25.53C29.48 11.029 32.76 7.82316 33.97 4.33682L34.43 3.0044H27.56L25.59 5.02808H20.55C19.78 3.95613 18.56 3.0044 16.95 3.0044H14.47C13.68 3.0044 13.01 2.77398 12.56 2.42334C12.4 2.30312 12.27 2.16287 12.16 2.00257H15.92V-0.00106812H9.53C5.97 -0.00106812 3 2.88418 3 6.49074V9.03536H4C6.71 9.03536 8.17 9.47616 9.15 10.0973L7.84 13.0426C7.73 13.0426 7.62 13.0226 7.51 13.0226C5.98 13.0226 4.63 13.784 3.81 14.9461C3.58 15.2667 3.41 15.6273 3.27 15.998H0V18.0017H23.05C23.3 20.2457 25.19 21.9989 27.5 21.9989C29.81 21.9989 31.7 20.2457 31.95 17.9916H38V12.9926L24.07 13.0026ZM5 6.49074C5 4.02625 7.05 2.00257 9.54 2.00257H10C10.22 2.82407 10.69 3.50531 11.33 4.00622C12.2 4.67744 13.32 5.00804 14.47 5.00804H16.95C17.81 5.00804 18.61 5.60913 19.14 6.53081L19.43 7.03172H26.44L28.41 5.00804H31.49C30.22 7.31223 27.94 9.02534 25.53 9.02534H23V10.0272C23 11.6 21.9 12.8924 20.66 13.0026H14.38L13.74 12.2011C13.5 11.8906 13.27 11.6 13.04 11.2995C13.02 11.2794 13.01 11.2594 12.99 11.2394C12.75 10.9288 12.51 10.6082 12.26 10.2977C11.76 9.68655 11.21 9.09547 10.5 8.59456C9.21 7.6829 7.54 7.16196 4.99 7.06177V6.50075L5 6.49074ZM10.7 11.5299C10.7 11.5299 10.72 11.5499 10.73 11.56C10.95 11.8304 11.17 12.121 11.41 12.4416C11.43 12.4616 11.44 12.4816 11.46 12.5017C11.68 12.8022 11.92 13.1128 12.18 13.4434L13.44 14.9962H23.76C23.55 15.3068 23.4 15.6474 23.27 15.998H11.75C11.57 15.4971 11.3 15.0363 10.97 14.6355C10.63 14.2248 10.22 13.8942 9.76 13.6237L10.69 11.5199L10.7 11.5299ZM7.51 15.0263C8.28 15.0263 8.97 15.3769 9.44 15.9279C9.46 15.9479 9.47 15.978 9.49 15.998H5.53C6 15.4069 6.7 15.0162 7.51 15.0162V15.0263ZM27.5 20.0153C26.12 20.0153 25 18.8933 25 17.5108C25 16.1283 26.12 15.0062 27.5 15.0062C28.88 15.0062 30 16.1283 30 17.5108C30 18.8933 28.88 20.0153 27.5 20.0153ZM36 16.008H31.72C31.59 15.6574 31.44 15.3168 31.24 15.0062H36V16.008Z" fill="#17C59C"></path>
</svg>